<svg width="32" height="26.25" viewBox="0 0 34 28" fill="none" xmlns="http://www.w3.org/2000/svg">
<path d="M13.467 21.0864C11.7395 21.0864 10.3402 22.4858 10.3402 24.2132C10.3402 25.9406 11.7395 27.34 13.467 27.34C15.1944 27.34 16.5938 25.9339 16.5938 24.2132C16.5938 22.4925 15.1877 21.0864 13.467 21.0864ZM13.467 26.0612C12.4493 26.0612 11.6257 25.2376 11.6257 24.2199C11.6257 23.2022 12.4493 22.3787 13.467 22.3787C14.4847 22.3787 15.3082 23.2022 15.3082 24.2199C15.3082 25.2309 14.478 26.0612 13.467 26.0612ZM32.8102 3.64471C32.5892 3.33003 32.1473 2.94838 31.2702 2.94838C29.824 2.96847 10.9629 2.94838 10.8089 2.94838C10.4406 2.94838 10.1393 3.24968 10.1393 3.61793C10.1393 3.98618 10.4406 4.28748 10.8089 4.28748C11.4449 4.28748 29.8307 4.30756 31.2836 4.28748C31.5046 4.28748 31.6653 4.32765 31.7121 4.4013C31.7858 4.51512 31.8394 4.90346 31.5648 5.62657C30.902 7.01923 27.802 14.2035 27.4003 14.8262C27.34 14.9199 27.2864 15.0136 27.2329 15.1007C26.9717 15.5426 26.8847 15.6899 26.021 15.6899H11.2173C10.4138 12.6702 7.60843 2.72074 7.48122 2.23197C7.46783 2.20519 7.46113 2.1784 7.44774 2.15162C6.97906 1.06026 5.89439 1 4.74947 1H1.66955C1.3013 1 1 1.3013 1 1.66955C1 2.0378 1.3013 2.3391 1.66955 2.3391H4.74947C5.33867 2.3391 5.94126 2.74082 6.20238 3.30994C6.44342 4.19374 9.83133 15.5225 10.1058 16.7478C10.6147 18.9774 11.9672 20.4303 13.8218 20.4303H26.3223C26.6905 20.4303 26.9918 20.129 26.9918 19.7607C26.9918 19.3925 26.6905 19.0912 26.3223 19.0912H13.8218C12.5095 19.0912 11.8801 17.9529 11.5789 17.0357H26.021C27.5342 17.0357 27.9761 16.4933 28.3912 15.7769C28.4381 15.7033 28.4782 15.6229 28.5318 15.5426C28.9603 14.873 32.0871 7.64861 32.7968 6.14882C33.2052 5.07085 33.2119 4.22722 32.8102 3.64471ZM26.1884 21.0864C24.4609 21.0864 23.0616 22.4858 23.0616 24.2132C23.0616 25.9406 24.4609 27.34 26.1884 27.34C27.9158 27.34 29.3152 25.9339 29.3152 24.2132C29.3152 22.4925 27.9091 21.0864 26.1884 21.0864ZM26.1884 26.0612C25.1707 26.0612 24.3471 25.2376 24.3471 24.2199C24.3471 23.2022 25.1707 22.3787 26.1884 22.3787C27.2061 22.3787 28.0296 23.2022 28.0296 24.2199C28.0296 25.2309 27.1994 26.0612 26.1884 26.0612Z" fill="white" stroke="white" stroke-width="0.5"/>
</svg>
