<svg width="1322" height="716" viewBox="0 0 1322 716" fill="none" xmlns="http://www.w3.org/2000/svg">
<rect x="1319.72" y="7.04706" width="29.6252" height="7.43436" rx="3.71718" transform="rotate(139.309 1319.72 7.04706)" fill="#FEB1C6" stroke="black" stroke-width="2"/>
<rect x="1243.91" y="134.354" width="29.6252" height="7.43436" rx="3.71718" transform="rotate(61.8473 1243.91 134.354)" fill="#6EC4AA" stroke="black" stroke-width="2"/>
<rect x="1154.7" y="45.2953" width="29.6252" height="7.43436" rx="3.71718" transform="rotate(160.835 1154.7 45.2953)" fill="#6EC4AA" stroke="black" stroke-width="2"/>
<rect x="1290.28" y="88.9205" width="29.6252" height="7.43436" rx="3.71718" transform="rotate(-143.721 1290.28 88.9205)" fill="#FFE935" stroke="black" stroke-width="2"/>
<rect x="1227.76" y="33.1544" width="29.6252" height="7.43436" rx="3.71718" transform="rotate(105 1227.76 33.1544)" fill="white" stroke="black" stroke-width="2"/>
<rect x="1182.64" y="91.6805" width="29.6252" height="7.43436" rx="3.71718" transform="rotate(61.9333 1182.64 91.6805)" fill="white" stroke="black" stroke-width="2"/>
<rect x="24.9085" y="684.354" width="29.6252" height="7.43436" rx="3.71718" transform="rotate(61.8473 24.9085 684.354)" fill="#6EC4AA" stroke="black" stroke-width="2"/>
<rect x="30.3999" y="608.667" width="29.6252" height="7.43436" rx="3.71718" transform="rotate(147.743 30.3999 608.667)" fill="#FFE935" stroke="black" stroke-width="2"/>
<rect x="80.9318" y="687.402" width="29.6252" height="7.43436" rx="3.71718" transform="rotate(37.535 80.9318 687.402)" fill="white" stroke="black" stroke-width="2"/>
<rect x="89.704" y="663.517" width="29.6252" height="7.43436" rx="3.71718" transform="rotate(-138.807 89.704 663.517)" fill="#FEB1C6" stroke="black" stroke-width="2"/>
</svg>
